PathFileType	4	(X/Y/Z)	Patient4_TMGait_0pt4_03_left_38.trc.trc
DataRate	CameraRate	NumFrames	NumMarkers	Units	OrigDataRate	OrigDataStartFrame	OrigNumFrames
74.468085106383	74.468085106383	6	33	mm	74.468085106383	53	       141
Frame#	Time	Sacral			L.Shoulder			Chest			R.Shoulder			Neck			R.ASIS			L.ASIS			R.Thigh.Superior			R.Thigh.Lateral			R.Thigh.Inferior			R.Patella			L.Thigh.Superior			L.Thigh.Lateral			L.Thigh.Inferior			L.Patella			L.Shank.Superior			L.Shank.Lateral			L.Shank.Inferior			R.Shank.Superior			R.Shank.Lateral			R.Shank.Inferior			R.Heel			R.Midfoot.Superior			R.Midfoot.Lateral			R.Toe			L.Heel			L.Midfoot.Lateral			L.Midfoot.Superior			L.Toe			L.Elbow			L.Wrist			R.Elbow			R.Wrist			
		X1	Y1	Z1	X2	Y2	Z2	X3	Y3	Z3	X4	Y4	Z4	X5	Y5	Z5	X6	Y6	Z6	X7	Y7	Z7	X8	Y8	Z8	X9	Y9	Z9	X10	Y10	Z10	X11	Y11	Z11	X12	Y12	Z12	X13	Y13	Z13	X14	Y14	Z14	X15	Y15	Z15	X16	Y16	Z16	X17	Y17	Z17	X18	Y18	Z18	X19	Y19	Z19	X20	Y20	Z20	X21	Y21	Z21	X22	Y22	Z22	X23	Y23	Z23	X24	Y24	Z24	X25	Y25	Z25	X26	Y26	Z26	X27	Y27	Z27	X28	Y28	Z28	X29	Y29	Z29	X30	Y30	Z30	X31	Y31	Z31	X32	Y32	Z32	X33	Y33	Z33	

53	51.068285714286	876.262191976898	1007.283442272792	437.922010976603	1041.914661453410	1432.300000574724	237.738279058293	1148.336065149785	1374.703288210500	400.357013611984	1064.422723753851	1449.757640470763	573.943801008746	1022.809110437448	1500.514737217090	395.508503948708	1108.384793197253	952.354288029483	552.603377607457	1091.233665445040	966.562055873931	279.162246048994	1186.937147288890	774.600824016622	526.500698041169	1142.789655002382	655.144507719558	603.286884225974	1230.895668166732	611.686857695302	525.259465373731	1245.781156330008	499.916276722722	550.030373552265	1139.421739917436	752.177582142977	306.044884668654	1046.384281961002	636.765006146219	251.221136251223	1131.813601933227	559.105451214702	311.271739453357	1130.687078582362	490.841493680342	322.737823737527	1105.442983543119	418.836173619777	316.380101266666	1015.670567593135	303.401830573372	267.353255933185	1067.219735601836	192.979136276723	340.079685586704	1169.554146996874	426.499609608816	559.796947684601	1049.946163346592	388.942247579071	625.229822911132	1032.940160273635	279.389050992655	578.231681316154	831.587395477225	218.095704463707	559.288854897834	999.928751381206	157.327748134802	590.649662192030	892.447971143678	156.155364355175	629.553724754177	1067.228500786784	45.376624149281	614.453802475273	940.863917877204	38.894606560584	388.487122333372	1012.431722886818	35.292241253636	305.559433888437	1096.171993977268	96.065959933883	330.958148268376	1224.322607656549	44.024150301763	298.627118398939	1080.293773605538	1085.145856095399	108.731436403172	1235.627615368381	874.574940914220	96.708200517408	1069.712120058436	1104.462958315402	707.031423443494	1186.662432698246	870.334767501643	704.856613951655	
54	51.081714285714	875.666350136537	1007.719814396060	436.270630295685	1043.434555907032	1433.030053404571	237.025761893327	1148.171936947830	1375.170796897600	400.650562087558	1062.490351753506	1449.984723002621	573.487845241286	1022.819497620426	1501.013065804625	394.803276435432	1107.166087406703	953.424008578782	552.433698065198	1091.522406315212	966.861172815466	278.884881041403	1187.785753496261	777.722692347330	526.125069347888	1145.872911340694	657.857447595953	603.282859860129	1234.284118480475	615.569465897342	524.925368916687	1251.338530908294	504.256893060968	549.951691751372	1138.021903218180	751.593878594203	306.228961114496	1044.075751345380	636.842309624366	250.982100875275	1128.636277597227	558.543312677239	311.358907433775	1126.923660806464	490.404408829913	322.876710170040	1101.423810908561	418.598923037337	316.375202732383	1011.246653702284	303.513614962297	267.110581734855	1062.257442743152	192.867718457419	339.961276053157	1176.669130968568	429.413006305358	559.842760072866	1057.923209293432	388.946546353636	625.038244497069	1043.759727389163	278.920239780411	578.237128264397	844.066847141193	212.169642526545	559.066881017204	1013.814192564525	156.240752811504	590.696305607156	906.534452064053	152.345943371922	629.737611043197	1084.131804478779	46.592945501962	615.136720976554	935.431678811824	38.978328323435	388.369772138307	1007.058663082157	35.286863385462	305.481594470655	1090.836791497696	96.015189110419	330.870691237598	1218.979478669385	43.854618886537	298.612100573760	1085.778031794644	1087.270466722539	106.228707619784	1249.189546630763	882.872694573430	93.331848880177	1057.082186946339	1104.391822284349	705.740197178752	1160.378018285635	863.697682940583	705.164825842363	
55	51.095142857143	875.098830431941	1008.208471136947	434.770788939395	1045.119322297930	1433.768618712778	236.512037036093	1148.129938565437	1375.595753602456	401.117579302505	1060.698343863759	1450.203968716023	573.177234099407	1022.946495248964	1501.503059974970	394.270494487566	1105.972364246024	954.420540014169	552.378028014914	1091.793920481869	967.138951006182	278.747022581248	1188.340905382849	780.537794207950	525.930122452511	1148.441173772198	660.344890760369	603.431820425451	1236.964037493871	619.042751452065	524.691939363568	1256.079594212136	508.413608414635	549.979330581994	1136.417864815697	751.004484172022	306.615592673922	1041.575072642048	636.963743372226	250.782169055507	1125.176183551766	557.991430764032	311.493901896329	1122.834254361162	490.011173803353	323.006751310209	1097.131408554459	418.415478887337	316.344028091493	1006.588703537652	303.635920032605	266.869689004151	1057.196824085223	192.808351289369	339.828188964739	1183.318561617463	432.017797421114	560.031837320846	1065.862200000835	388.003697504764	625.141481741517	1055.099311686811	277.518126322022	578.485170753672	857.558836873439	204.250733339251	559.270318556922	1028.890983564771	154.191064949243	591.073818461257	921.955245854384	147.039708020288	630.350154972930	1102.811419832894	47.423342909132	616.250399172847	929.996764830127	39.056738726367	388.261929001841	1001.678550160020	35.277064952505	305.406433799912	1085.492554560097	95.971861956831	330.778632780757	1213.626306286770	43.711349317555	298.601350641320	1090.552152409521	1089.335068476626	104.019116866137	1262.021996432020	891.597112523323	90.349232086332	1044.334082849856	1104.711879313703	704.499996145064	1134.148317213407	858.484235821352	705.266602430222	
56	51.108571428571	874.551755005062	1008.727080527189	433.419193012198	1046.940958913994	1434.472351348968	236.201627685402	1148.203244126786	1375.950123880230	401.756329333224	1059.069085014173	1450.402970791945	573.017390189801	1023.186820686122	1501.959859624293	393.906868679926	1104.803154251226	955.293132749049	552.438487908550	1092.053429287244	967.388408210159	278.740898229230	1188.584375254317	782.974856454152	525.880582997021	1150.452866698144	662.525324643705	603.703615663043	1238.909747122612	622.011660468410	524.550224673686	1259.958621016539	512.297633101284	550.086032598370	1134.635843248293	750.406542435833	307.157853754864	1038.902801374238	637.121928403162	250.602433231964	1121.458151401396	557.447434888525	311.653816866877	1118.451591906245	489.658523088437	323.115717335080	1092.595639956855	418.276584899884	316.281835590804	1001.728448775736	303.760878740317	266.628966017136	1052.060505023111	192.797795929679	339.687370590762	1189.456174273186	434.271984779929	560.343805635123	1073.780563874968	386.161053393924	625.556167539175	1066.922164276093	275.290411251790	578.988835115283	872.109227816012	194.620014948071	559.948158603315	1045.084741665655	151.329956814443	591.793798292263	938.679393040053	140.475625343316	631.409728538311	1123.056745718451	47.940014806645	617.757149310303	924.562392557484	39.125967046279	388.165514102447	996.292235236940	35.262919515639	305.334338437713	1080.141530705491	95.937477244064	330.685745994470	1208.264309793110	43.593636140122	298.593376981568	1094.676989085131	1091.280671751960	102.082191327435	1274.088623445488	900.649505828044	87.759697219560	1031.551164275365	1105.438243839704	703.311983986410	1108.215456036932	854.672576509807	705.155266378143	
57	51.122000000000	874.026256423176	1009.252131978143	432.215452772906	1048.863504011084	1435.103707674887	236.097705768105	1148.382419905823	1376.211591332496	402.562196421053	1057.625489828727	1450.572044556488	573.014167416820	1023.533918133358	1502.360793452644	393.712446713369	1103.662642193467	955.999219214439	552.618720248998	1092.310669521540	967.605454773944	278.857036524614	1188.490280934215	784.964771581975	525.946854396508	1151.844188819318	664.322391833756	604.070797775045	1240.084296466516	624.390451300832	524.502391239224	1262.918655065017	515.827113946006	550.248357866629	1132.711273085835	749.794366011790	307.802703739128	1036.079803298215	637.308302744892	250.430960505536	1117.510759231638	556.908005782311	311.821164794746	1113.814340730868	489.341402355194	323.198328136036	1087.849652153205	418.173009972125	316.190027049637	996.699744961624	303.881645267157	266.391164638803	1046.869269180162	192.831112676393	339.548376110372	1195.027365327319	436.151321519979	560.759263478576	1081.685904179851	383.491962730112	626.291499443795	1079.180621655749	272.375163663845	579.748216637951	887.759492176880	183.587935564286	561.116965808579	1062.317628818494	147.843303612989	592.849448711254	956.669211621181	132.917062211220	632.904351534702	1144.652149268595	48.264109603484	619.587174880572	919.130871441808	39.182294573526	388.081872130178	990.900179915125	35.244424947340	305.266030453387	1074.785179230123	95.913552326933	330.595615039973	1202.893883876871	43.500613463179	298.586722881692	1098.230427078416	1093.063365845706	100.403795898170	1285.360833438780	909.924537652870	85.566691152620	1018.826036239618	1106.576252356221	702.173129119331	1082.804591974408	852.205382296783	704.839170556941	
58	51.135428571429	873.531745284550	1009.759554653113	431.161852242244	1050.846104591734	1435.632761385900	236.201829429367	1148.656285699255	1376.364231745331	403.527737643201	1056.388042450321	1450.703326002856	573.173328802631	1023.977958134527	1502.686294187272	393.689841449990	1102.560044777074	956.506369079899	552.923178080482	1092.574900082364	967.784869458621	279.087123707111	1188.030082025733	786.442407640064	526.110990199673	1152.537482880147	665.668575252612	604.514299073625	1240.445379224186	626.105475894815	524.563171821545	1264.897684050373	518.928724854129	550.450693559120	1130.685712192438	749.160885961788	308.499294948169	1033.126613837400	637.514128637025	250.262674403346	1113.363848350601	556.369361451282	311.984907523069	1108.963129003592	489.053057168827	323.254530926282	1082.926155980739	418.096347280629	316.074562025739	991.535128889423	303.992838679273	266.161528058233	1041.639109054415	192.901443201745	339.421283298269	1199.972999996708	437.649143137886	561.263738973401	1089.569251816336	380.091426151425	627.345633711831	1091.811213403141	268.932079750743	580.748623951632	904.531970871548	171.484031692921	562.752758534235	1080.500897147456	143.938810001962	594.215440474943	975.867119306253	124.638733140235	634.786658432406	1167.374129164109	48.546819848651	621.644506832650	913.703665245297	39.222676420031	388.011350443215	985.502395994106	35.221448604814	305.202330917369	1069.423942021639	95.901240617406	330.510892681083	1197.514670653950	43.431352434571	298.580187240737	1101.297633306890	1094.654150195281	98.976727477522	1295.817747299511	919.312901011304	83.775817878297	1006.261358994958	1108.119027705730	701.079204645717	1058.120543530984	850.992742461386	704.340076256286	
